<svg width="358" height="50" viewBox="0 0 358 50" fill="none" xmlns="http://www.w3.org/2000/svg">
<rect width="358" height="50" rx="2" fill="black"/>
<path d="M151.779 22.1818H153.314C153.243 20.2067 151.422 18.7301 148.89 18.7301C146.385 18.7301 144.416 20.1875 144.416 22.3864C144.416 24.1506 145.694 25.1989 147.74 25.7869L149.35 26.2472C150.731 26.6307 151.958 27.1165 151.958 28.4205C151.958 29.8523 150.578 30.7983 148.762 30.7983C147.203 30.7983 145.822 30.108 145.694 28.625H144.058C144.211 30.7727 145.95 32.2301 148.762 32.2301C151.779 32.2301 153.493 30.5682 153.493 28.446C153.493 25.9915 151.166 25.1989 149.811 24.8409L148.481 24.483C147.51 24.2273 145.95 23.7159 145.95 22.3097C145.95 21.0568 147.1 20.1364 148.839 20.1364C150.424 20.1364 151.626 20.8906 151.779 22.1818ZM158.784 32.2301C160.497 32.2301 161.392 31.3097 161.698 30.6705H161.775V32H163.284V25.5312C163.284 22.4119 160.906 22.054 159.653 22.054C158.17 22.054 156.482 22.5653 155.715 24.3551L157.147 24.8665C157.48 24.1506 158.266 23.3835 159.704 23.3835C161.091 23.3835 161.775 24.1186 161.775 25.3778V25.429C161.775 26.1577 161.034 26.0938 159.244 26.3239C157.422 26.5604 155.434 26.9631 155.434 29.2131C155.434 31.1307 156.917 32.2301 158.784 32.2301ZM159.014 30.875C157.812 30.875 156.943 30.3381 156.943 29.2898C156.943 28.1392 157.991 27.7812 159.167 27.6278C159.806 27.5511 161.519 27.3722 161.775 27.0653V28.446C161.775 29.6733 160.803 30.875 159.014 30.875ZM173.714 22.1818H172.077L169.367 30.0057H169.265L166.555 22.1818H164.918L168.549 32H170.083L173.714 22.1818ZM175.705 32H177.213V22.1818H175.705V32ZM176.472 20.5455C177.06 20.5455 177.546 20.0852 177.546 19.5227C177.546 18.9602 177.06 18.5 176.472 18.5C175.884 18.5 175.398 18.9602 175.398 19.5227C175.398 20.0852 175.884 20.5455 176.472 20.5455ZM181.485 26.0938C181.485 24.3807 182.546 23.4091 183.991 23.4091C185.39 23.4091 186.241 24.3232 186.241 25.8636V32H187.749V25.7614C187.749 23.2557 186.413 22.054 184.425 22.054C182.942 22.054 182.022 22.7188 181.562 23.7159H181.434V22.1818H179.976V32H181.485V26.0938ZM194.469 35.8864C196.821 35.8864 198.713 34.8125 198.713 32.2812V22.1818H197.256V23.7415H197.102C196.77 23.2301 196.156 22.054 194.239 22.054C191.759 22.054 190.045 24.0227 190.045 27.0398C190.045 30.108 191.835 31.8466 194.213 31.8466C196.131 31.8466 196.744 30.7216 197.077 30.1847H197.205V32.179C197.205 33.8153 196.054 34.5568 194.469 34.5568C192.685 34.5568 192.059 33.6172 191.656 33.0739L190.455 33.9176C191.068 34.9467 192.276 35.8864 194.469 35.8864ZM194.418 30.4915C192.526 30.4915 191.554 29.0597 191.554 27.0142C191.554 25.0199 192.5 23.4091 194.418 23.4091C196.259 23.4091 197.23 24.892 197.23 27.0142C197.23 29.1875 196.233 30.4915 194.418 30.4915ZM202.574 32.1023C203.207 32.1023 203.724 31.5845 203.724 30.9517C203.724 30.3189 203.207 29.8011 202.574 29.8011C201.941 29.8011 201.423 30.3189 201.423 30.9517C201.423 31.5845 201.941 32.1023 202.574 32.1023ZM207.531 32.1023C208.164 32.1023 208.681 31.5845 208.681 30.9517C208.681 30.3189 208.164 29.8011 207.531 29.8011C206.898 29.8011 206.38 30.3189 206.38 30.9517C206.38 31.5845 206.898 32.1023 207.531 32.1023ZM212.488 32.1023C213.121 32.1023 213.638 31.5845 213.638 30.9517C213.638 30.3189 213.121 29.8011 212.488 29.8011C211.855 29.8011 211.337 30.3189 211.337 30.9517C211.337 31.5845 211.855 32.1023 212.488 32.1023Z" fill="white"/>
</svg>
